# xmcd
#
# Track frame offsets: 
#        150
#        16618
#        32812
#        50871
#        75715
#        91765
#        116667
#        139143
#        160158
#        177720
#        200390
#        224920
#        237333
#        254190
#
# Disc length: 3599 seconds
#
# Revision: 0
# Processed by: cddbd v1.5.2PL0 Copyright (c) Steve Scherf et al.
# Submitted via: ExactAudioCopy v1.0b4
#
DISCID=cf0e0d0e
DTITLE=Uirá Cabral - Blues Is Calling
DYEAR=2017
DGENRE=Blues
TTITLE0=Blues Is Calling
TTITLE1=Blowin' The Hucklebuck
TTITLE2=Tell Me
TTITLE3=Sting Stang
TTITLE4=Call Everybody Sweetheart
TTITLE5=Must Be Jelly
TTITLE6=Never Can Tell
TTITLE7=My Way Or The Highway
TTITLE8=That's What Love Is Made For
TTITLE9=I'm Your .44
TTITLE10=Blue Hour
TTITLE11=She's My Baby
TTITLE12=I Ain't Drunk
TTITLE13=Man For You
EXTD=
EXTT0=
EXTT1=
EXTT2=
EXTT3=
EXTT4=
EXTT5=
EXTT6=
EXTT7=
EXTT8=
EXTT9=
EXTT10=
EXTT11=
EXTT12=
EXTT13=
PLAYORDER=
